<svg width="24" height="24" viewBox="0 0 24 24" fill="none" xmlns="http://www.w3.org/2000/svg">
<path d="M4 4L20 20" stroke="black" stroke-linecap="round"/>
<path fill-rule="evenodd" clip-rule="evenodd" d="M6.4057 6.11281C4.50534 7.31161 3.01645 9.10303 2.19833 11.2271C2.00681 11.7244 2.00681 12.2756 2.19833 12.7729C3.71363 16.7071 7.53002 19.5 12 19.5C14.2081 19.5 16.2568 18.8184 17.9473 17.6544L17.227 16.9341C15.7274 17.9239 13.9308 18.5 12 18.5C7.95723 18.5 4.5031 15.9745 3.13151 12.4134C3.02908 12.1475 3.02908 11.8525 3.13151 11.5866C3.89961 9.59232 5.32081 7.92287 7.13273 6.83984L6.4057 6.11281ZM9.67587 9.38298C8.95447 10.0241 8.49997 10.959 8.49997 12C8.49997 13.933 10.067 15.5 12 15.5C13.041 15.5 13.9759 15.0455 14.617 14.3241L13.9082 13.6153C13.4496 14.1565 12.7649 14.5 12 14.5C10.6193 14.5 9.49997 13.3807 9.49997 12C9.49997 11.2351 9.8435 10.5504 10.3847 10.0918L9.67587 9.38298ZM11.305 9.59787L10.5299 8.82278C10.9769 8.61562 11.4749 8.5 12 8.5C13.933 8.5 15.5 10.067 15.5 12C15.5 12.5251 15.3844 13.0231 15.1772 13.4701L14.4021 12.695C14.4658 12.4744 14.5 12.2412 14.5 12C14.5 10.6193 13.3807 9.5 12 9.5C11.7588 9.5 11.5256 9.53415 11.305 9.59787ZM18.0401 16.333C19.292 15.3007 20.2751 13.954 20.8684 12.4134C20.9709 12.1475 20.9709 11.8525 20.8684 11.5866C19.4968 8.02546 16.0427 5.5 12 5.5C10.5946 5.5 9.2604 5.80518 8.06006 6.35296L7.31012 5.60301C8.72155 4.8972 10.3143 4.5 12 4.5C16.4699 4.5 20.2863 7.29294 21.8016 11.2271C21.9931 11.7244 21.9931 12.2756 21.8016 12.7729C21.1578 14.4445 20.0984 15.9101 18.7501 17.043L18.0401 16.333Z" fill="black"/>
</svg>
