<svg width="16" height="16" viewBox="0 0 16 16" fill="none" xmlns="http://www.w3.org/2000/svg">
<path d="M11.2004 5.5998V3.1998C11.2004 1.87432 10.1259 0.799805 8.80039 0.799805H7.20039C5.87491 0.799805 4.80039 1.87432 4.80039 3.1998V5.5998M11.2004 5.5998H4.80039M11.2004 5.5998C12.5259 5.5998 13.6004 6.67432 13.6004 7.9998V12.7998C13.6004 14.1253 12.5259 15.1998 11.2004 15.1998H4.80039C3.47491 15.1998 2.40039 14.1253 2.40039 12.7998V7.9998C2.40039 6.67432 3.47491 5.5998 4.80039 5.5998M8.00039 9.5998V11.9998M8.80039 9.5998C8.80039 10.0416 8.44222 10.3998 8.00039 10.3998C7.55856 10.3998 7.20039 10.0416 7.20039 9.5998C7.20039 9.15798 7.55856 8.7998 8.00039 8.7998C8.44222 8.7998 8.80039 9.15798 8.80039 9.5998Z" stroke="#979797" stroke-width="0.8" stroke-linecap="round" stroke-linejoin="round"/>
</svg>
