<svg width="18" height="18" viewBox="0 0 18 18" fill="none" xmlns="http://www.w3.org/2000/svg">
<path d="M14.875 6.021V4.25016C14.875 3.46776 14.2407 2.8335 13.4583 2.8335H3.54167C2.75926 2.8335 2.125 3.46776 2.125 4.25016V7.79183C2.125 8.57423 2.75926 9.2085 3.54167 9.2085H7.70312M13.4583 9.91683V8.50016C13.4583 7.71776 12.8241 7.0835 12.0417 7.0835C11.2593 7.0835 10.625 7.71776 10.625 8.50016V9.91683M9.91667 14.1668H14.1667C14.5579 14.1668 14.875 13.8497 14.875 13.4585V10.6252C14.875 10.234 14.5579 9.91683 14.1667 9.91683H9.91667C9.52546 9.91683 9.20833 10.234 9.20833 10.6252V13.4585C9.20833 13.8497 9.52546 14.1668 9.91667 14.1668Z" stroke="#979797" stroke-linecap="round" stroke-linejoin="round"/>
<circle cx="5.3125" cy="6.021" r="1.0625" fill="#979797"/>
<circle cx="8.5" cy="6.021" r="1.0625" fill="#979797"/>
</svg>
