<svg width="24" height="24" viewBox="0 0 24 24" fill="none" xmlns="http://www.w3.org/2000/svg">
<path d="M21.335 11.4069L21.8016 11.2271L21.335 11.4069ZM21.335 12.5932L20.8684 12.4134L21.335 12.5932ZM2.66492 11.4068L2.19833 11.2271L2.66492 11.4068ZM2.66492 12.5932L2.19833 12.7729L2.66492 12.5932ZM3.13151 11.5866C4.5031 8.02545 7.95723 5.5 12 5.5V4.5C7.53002 4.5 3.71363 7.29293 2.19833 11.2271L3.13151 11.5866ZM12 5.5C16.0427 5.5 19.4968 8.02546 20.8684 11.5866L21.8016 11.2271C20.2863 7.29294 16.4699 4.5 12 4.5V5.5ZM20.8684 12.4134C19.4968 15.9746 16.0427 18.5 12 18.5V19.5C16.4699 19.5 20.2863 16.7071 21.8016 12.7729L20.8684 12.4134ZM12 18.5C7.95723 18.5 4.5031 15.9745 3.13151 12.4134L2.19833 12.7729C3.71363 16.7071 7.53002 19.5 12 19.5V18.5ZM20.8684 11.5866C20.9709 11.8525 20.9709 12.1475 20.8684 12.4134L21.8016 12.7729C21.9931 12.2756 21.9931 11.7244 21.8016 11.2271L20.8684 11.5866ZM2.19833 11.2271C2.00681 11.7244 2.00681 12.2756 2.19833 12.7729L3.13151 12.4134C3.02908 12.1475 3.02908 11.8525 3.13151 11.5866L2.19833 11.2271Z" fill="black"/>
<circle cx="12" cy="12" r="3" stroke="black" stroke-linecap="round" stroke-linejoin="round"/>
</svg>
