<svg width="29" height="11" viewBox="0 0 29 11" fill="none" xmlns="http://www.w3.org/2000/svg">
<path d="M6.74 1.05L4.13 8H2.81L0.19 1.05H1.41L3.47 6.83L5.54 1.05H6.74ZM12.7434 5.11C12.7434 5.31667 12.73 5.50333 12.7034 5.67H8.49336C8.52669 6.11 8.69003 6.46333 8.98336 6.73C9.27669 6.99667 9.63669 7.13 10.0634 7.13C10.6767 7.13 11.11 6.87333 11.3634 6.36H12.5934C12.4267 6.86667 12.1234 7.28333 11.6834 7.61C11.25 7.93 10.71 8.09 10.0634 8.09C9.53669 8.09 9.06336 7.97333 8.64336 7.74C8.23003 7.5 7.90336 7.16667 7.66336 6.74C7.43003 6.30667 7.31336 5.80667 7.31336 5.24C7.31336 4.67333 7.42669 4.17667 7.65336 3.75C7.88669 3.31667 8.21003 2.98333 8.62336 2.75C9.04336 2.51667 9.52336 2.4 10.0634 2.4C10.5834 2.4 11.0467 2.51333 11.4534 2.74C11.86 2.96667 12.1767 3.28667 12.4034 3.7C12.63 4.10667 12.7434 4.57667 12.7434 5.11ZM11.5534 4.75C11.5467 4.33 11.3967 3.99333 11.1034 3.74C10.81 3.48667 10.4467 3.36 10.0134 3.36C9.62003 3.36 9.28336 3.48667 9.00336 3.74C8.72336 3.98667 8.55669 4.32333 8.50336 4.75H11.5534ZM15.0052 3.29C15.1719 3.01 15.3919 2.79333 15.6652 2.64C15.9452 2.48 16.2752 2.4 16.6552 2.4V3.58H16.3652C15.9186 3.58 15.5786 3.69333 15.3452 3.92C15.1186 4.14667 15.0052 4.54 15.0052 5.1V8H13.8652V2.49H15.0052V3.29ZM18.2831 1.76C18.0765 1.76 17.9031 1.69 17.7631 1.55C17.6231 1.41 17.5531 1.23667 17.5531 1.03C17.5531 0.823333 17.6231 0.65 17.7631 0.51C17.9031 0.37 18.0765 0.3 18.2831 0.3C18.4831 0.3 18.6531 0.37 18.7931 0.51C18.9331 0.65 19.0031 0.823333 19.0031 1.03C19.0031 1.23667 18.9331 1.41 18.7931 1.55C18.6531 1.69 18.4831 1.76 18.2831 1.76ZM18.8431 2.49V8H17.7031V2.49H18.8431ZM22.6498 3.42H21.6298V8H20.4798V3.42H19.8298V2.49H20.4798V2.1C20.4798 1.46667 20.6465 1.00667 20.9798 0.72C21.3198 0.426666 21.8498 0.28 22.5698 0.28V1.23C22.2232 1.23 21.9798 1.29667 21.8398 1.43C21.6998 1.55667 21.6298 1.78 21.6298 2.1V2.49H22.6498V3.42ZM28.6202 2.49L25.2402 10.59H24.0602L25.1802 7.91L23.0102 2.49H24.2802L25.8302 6.69L27.4402 2.49H28.6202Z" fill="#1C71F1"/>
</svg>
