<svg width="59" height="24" viewBox="0 0 59 24" fill="none" xmlns="http://www.w3.org/2000/svg">
<path d="M5.26469 18.112C4.48602 18.112 3.78202 17.9787 3.15269 17.712C2.53402 17.4453 2.04335 17.0613 1.68069 16.56C1.31802 16.0587 1.13135 15.4667 1.12069 14.784H3.52069C3.55269 15.2427 3.71269 15.6053 4.00069 15.872C4.29935 16.1387 4.70469 16.272 5.21669 16.272C5.73935 16.272 6.15002 16.1493 6.44869 15.904C6.74735 15.648 6.89669 15.3173 6.89669 14.912C6.89669 14.5813 6.79535 14.3093 6.59269 14.096C6.39002 13.8827 6.13402 13.7173 5.82469 13.6C5.52602 13.472 5.11002 13.3333 4.57669 13.184C3.85135 12.9707 3.25935 12.7627 2.80069 12.56C2.35269 12.3467 1.96335 12.032 1.63269 11.616C1.31269 11.1893 1.15269 10.624 1.15269 9.92C1.15269 9.25867 1.31802 8.68267 1.64869 8.192C1.97935 7.70133 2.44335 7.328 3.04069 7.072C3.63802 6.80533 4.32069 6.672 5.08869 6.672C6.24069 6.672 7.17402 6.95467 7.88869 7.52C8.61402 8.07467 9.01402 8.85333 9.08869 9.856H6.62469C6.60335 9.472 6.43802 9.15733 6.12869 8.912C5.83002 8.656 5.43002 8.528 4.92869 8.528C4.49135 8.528 4.13935 8.64 3.87269 8.864C3.61669 9.088 3.48869 9.41333 3.48869 9.84C3.48869 10.1387 3.58469 10.3893 3.77669 10.592C3.97935 10.784 4.22469 10.944 4.51269 11.072C4.81135 11.1893 5.22735 11.328 5.76069 11.488C6.48602 11.7013 7.07802 11.9147 7.53669 12.128C7.99535 12.3413 8.39002 12.6613 8.72069 13.088C9.05135 13.5147 9.21669 14.0747 9.21669 14.768C9.21669 15.3653 9.06202 15.92 8.75269 16.432C8.44335 16.944 7.99002 17.3547 7.39269 17.664C6.79535 17.9627 6.08602 18.112 5.26469 18.112ZM16.4067 18L13.3987 14.224V18H11.1587V6.16H13.3987V12.896L16.3747 9.136H19.2867L15.3827 13.584L19.3187 18H16.4067ZM21.6384 8.08C21.2438 8.08 20.9131 7.95733 20.6464 7.712C20.3904 7.456 20.2624 7.14133 20.2624 6.768C20.2624 6.39467 20.3904 6.08533 20.6464 5.84C20.9131 5.584 21.2438 5.456 21.6384 5.456C22.0331 5.456 22.3584 5.584 22.6144 5.84C22.8811 6.08533 23.0144 6.39467 23.0144 6.768C23.0144 7.14133 22.8811 7.456 22.6144 7.712C22.3584 7.95733 22.0331 8.08 21.6384 8.08ZM22.7424 9.136V18H20.5024V9.136H22.7424ZM27.1956 10.416C27.4836 10.0107 27.8782 9.67467 28.3796 9.408C28.8916 9.13067 29.4729 8.992 30.1236 8.992C30.8809 8.992 31.5636 9.17867 32.1716 9.552C32.7902 9.92533 33.2756 10.4587 33.6276 11.152C33.9902 11.8347 34.1716 12.6293 34.1716 13.536C34.1716 14.4427 33.9902 15.248 33.6276 15.952C33.2756 16.6453 32.7902 17.184 32.1716 17.568C31.5636 17.952 30.8809 18.144 30.1236 18.144C29.4729 18.144 28.8969 18.0107 28.3956 17.744C27.9049 17.4773 27.5049 17.1413 27.1956 16.736V22.224H24.9556V9.136H27.1956V10.416ZM31.8836 13.536C31.8836 13.0027 31.7716 12.544 31.5476 12.16C31.3342 11.7653 31.0462 11.4667 30.6836 11.264C30.3316 11.0613 29.9476 10.96 29.5316 10.96C29.1262 10.96 28.7422 11.0667 28.3796 11.28C28.0276 11.4827 27.7396 11.7813 27.5156 12.176C27.3022 12.5707 27.1956 13.0347 27.1956 13.568C27.1956 14.1013 27.3022 14.5653 27.5156 14.96C27.7396 15.3547 28.0276 15.6587 28.3796 15.872C28.7422 16.0747 29.1262 16.176 29.5316 16.176C29.9476 16.176 30.3316 16.0693 30.6836 15.856C31.0462 15.6427 31.3342 15.3387 31.5476 14.944C31.7716 14.5493 31.8836 14.08 31.8836 13.536Z" fill="#9A9A9A"/>
<circle cx="49" cy="12" r="7.5" transform="rotate(-90 49 12)" stroke="#9A9A9A" stroke-width="1.5" stroke-linecap="round" stroke-linejoin="round"/>
<path d="M44.8335 12.0002H53.1668M53.1668 12.0002L51.0835 14.0835M53.1668 12.0002L51.0835 9.91683" stroke="#9A9A9A" stroke-width="1.5" stroke-linecap="round" stroke-linejoin="round"/>
</svg>
